<?xml version="1.0" encoding="utf-8"?>
<!-- Generator: Adobe Illustrator 16.0.0, SVG Export Plug-In . SVG Version: 6.00 Build 0)  -->
<!DOCTYPE svg PUBLIC "-//W3C//DTD SVG 1.1//EN" "http://www.w3.org/Graphics/SVG/1.1/DTD/svg11.dtd">
<svg version="1.1" id="Layer_1" xmlns="http://www.w3.org/2000/svg" xmlns:xlink="http://www.w3.org/1999/xlink" x="0px" y="0px"
	 width="600px" height="600px" viewBox="340 0 600 600" enable-background="new 340 0 600 600" xml:space="preserve">
<g>
	<circle id="XMLID_4_" fill="#FFFFFF" cx="640" cy="300" r="300"/>
	<g>
		<path fill="#010101" d="M432.689,397.911c-0.262-3.395-0.522-6.005-0.522-8.616c-0.261-50.392,0-101.044-0.522-151.436
			c-0.261-39.948,31.593-67.363,66.058-66.318c16.71,0.522,33.421,0,50.131,0c2.872,0,6.005,0,9.66-0.261
			c0.783-5.483,1.567-10.705,2.351-15.927c5.222-33.942,30.548-55.875,65.013-55.875c10.966,0,22.193-0.261,33.159,0.784
			c33.159,2.872,55.353,25.065,59.008,57.963c0.522,4.177,0.783,8.355,1.045,12.793c15.665,0,30.809-0.261,45.952,0
			c12.533,0,25.065-0.522,37.337,3.395c26.632,8.355,43.604,30.548,44.647,59.791c-3.394,0-6.788,0.261-10.183,0.261
			c-82.245,0-164.229,0-246.475,0.261c-18.016,0-29.766,7.833-35.51,23.238c-1.566,4.438-2.35,9.138-2.35,14.099
			c-0.261,12.794,0.522,25.587,0,38.381c-0.783,20.104,14.621,38.643,38.381,38.382c30.81-0.522,61.619-0.262,92.167-0.262
			c3.395,0,6.528-0.261,9.922,0c8.355,0.522,12.011,3.917,12.271,12.272c0.262,7.832,0.262,15.404,0,23.237
			c-0.521,10.183-3.655,13.055-14.099,13.315c-24.282,0.262-48.303,0-72.585,0c-59.791,0-119.582,0.262-179.112,0.262
			C436.867,398.172,435.3,398.172,432.689,397.911z M688.303,168.407c1.306-19.843-8.616-34.987-25.849-36.554
			c-16.188-1.566-32.897-1.566-49.086,0c-17.232,1.828-28.46,19.844-23.76,36.554C622.245,168.407,655.144,168.407,688.303,168.407z
			"/>
		<path id="XMLID_1_" fill="#26A9E1" d="M846.267,271.541c0,6.005,0,11.488,0,16.71c0,42.037,0,84.074,0.261,126.11
			c0,21.148-7.833,38.381-24.021,51.697c-9.661,7.833-20.627,13.315-33.421,13.577c-14.621,0.261-29.242,0.783-43.864,0.783
			c-37.075,0.261-73.89,0-110.966,0.261c-42.82,0-85.9,0-128.721,0.262c-14.36,0-28.459-0.784-41.515-8.616
			c-13.838-8.355-22.977-20.104-28.459-36.554c7.833-0.262,14.621-0.783,21.41-0.783c54.568-0.262,109.138-0.262,163.968-0.262
			c31.332,0,62.664-0.261,93.995,0c22.977,0.262,40.992-17.232,40.209-40.73c-0.261-13.056,0-26.371,0-39.426
			c0-10.966-2.35-21.149-10.183-29.766c-6.789-7.311-14.883-12.01-25.065-12.271c-16.449-0.261-32.898-0.261-49.086-0.261
			c-19.321,0-38.643,0-58.225-0.261c-8.094-0.262-9.399-1.567-9.922-9.139c-0.522-6.789-0.522-13.838-0.261-20.626
			c0.261-7.311,3.394-10.183,11.749-10.183c18.799-0.261,37.598-0.261,56.396-0.261c54.831,0,109.922-0.261,164.752-0.261
			C838.694,271.018,842.089,271.279,846.267,271.541z"/>
	</g>
</g>
</svg>
